<svg width="160" height="39" viewBox="0 0 160 39" fill="none" xmlns="http://www.w3.org/2000/svg">
<rect x="160" width="39" height="160" rx="11.2" transform="rotate(90 160 0)" fill="white" fill-opacity="0.3"/>
<path d="M77.75 14.2097C78.2678 14.2097 78.6875 13.79 78.6875 13.2722C78.6875 12.7544 78.2678 12.3347 77.75 12.3347V14.2097ZM87.6875 22.2722C87.6875 21.7544 87.2678 21.3347 86.75 21.3347C86.2322 21.3347 85.8125 21.7544 85.8125 22.2722H87.6875ZM76.25 27.7097H83.75V25.8347H76.25V27.7097ZM72.3125 16.2722V23.7722H74.1875V16.2722H72.3125ZM77.75 12.3347H76.25V14.2097H77.75V12.3347ZM87.6875 23.7722V22.2722H85.8125V23.7722H87.6875ZM74.1875 16.2722C74.1875 15.1331 75.1109 14.2097 76.25 14.2097V12.3347C74.0754 12.3347 72.3125 14.0976 72.3125 16.2722H74.1875ZM83.75 27.7097C85.9246 27.7097 87.6875 25.9468 87.6875 23.7722H85.8125C85.8125 24.9113 84.8891 25.8347 83.75 25.8347V27.7097ZM76.25 25.8347C75.1109 25.8347 74.1875 24.9113 74.1875 23.7722H72.3125C72.3125 25.9468 74.0754 27.7097 76.25 27.7097V25.8347Z" fill="white"/>
<path d="M80.0871 18.6093C79.721 18.9754 79.721 19.569 80.0871 19.9351C80.4532 20.3012 81.0468 20.3012 81.4129 19.9351L80.0871 18.6093ZM86.75 13.2722H87.6875C87.6875 12.7544 87.2678 12.3347 86.75 12.3347V13.2722ZM82.25 12.3347C81.7322 12.3347 81.3125 12.7544 81.3125 13.2722C81.3125 13.79 81.7322 14.2097 82.25 14.2097V12.3347ZM85.8125 17.7722C85.8125 18.29 86.2322 18.7097 86.75 18.7097C87.2678 18.7097 87.6875 18.29 87.6875 17.7722H85.8125ZM81.4129 19.9351L87.4129 13.9351L86.0871 12.6093L80.0871 18.6093L81.4129 19.9351ZM86.75 12.3347H82.25V14.2097H86.75V12.3347ZM85.8125 13.2722V17.7722H87.6875V13.2722H85.8125Z" fill="white"/>
</svg>
