<svg width="24" height="24" viewBox="0 0 24 24" fill="none" xmlns="http://www.w3.org/2000/svg">
<path d="M2 2.75C1.30964 2.75 0.75 3.30964 0.75 4C0.75 4.69036 1.30964 5.25 2 5.25V2.75ZM22 5.25C22.6904 5.25 23.25 4.69036 23.25 4C23.25 3.30964 22.6904 2.75 22 2.75V5.25ZM2 5.25H22V2.75H2V5.25Z" fill="white"/>
<path d="M2 18.75C1.30964 18.75 0.75 19.3096 0.75 20C0.75 20.6904 1.30964 21.25 2 21.25V18.75ZM22 21.25C22.6904 21.25 23.25 20.6904 23.25 20C23.25 19.3096 22.6904 18.75 22 18.75V21.25ZM2 21.25H22V18.75H2V21.25Z" fill="white"/>
<path d="M2 10.75C1.30964 10.75 0.75 11.3096 0.75 12C0.75 12.6904 1.30964 13.25 2 13.25V10.75ZM22 13.25C22.6904 13.25 23.25 12.6904 23.25 12C23.25 11.3096 22.6904 10.75 22 10.75V13.25ZM2 13.25H22V10.75H2V13.25Z" fill="white"/>
</svg>
